<?xml version="1.0" standalone="no"?>
<!DOCTYPE svg PUBLIC "-//W3C//DTD SVG 20010904//EN"
 "http://www.w3.org/TR/2001/REC-SVG-20010904/DTD/svg10.dtd">
<svg version="1.0" xmlns="http://www.w3.org/2000/svg"
 width="225.000000pt" height="225.000000pt" viewBox="0 0 225.000000 225.000000"
 preserveAspectRatio="xMidYMid meet">
<metadata>
Created by potrace 1.14, written by Peter Selinger 2001-2017
</metadata>
<g transform="translate(0.000000,225.000000) scale(0.100000,-0.100000)"
fill="#000000" stroke="none">
<path d="M790 2200 c-50 -14 -91 -42 -118 -79 -28 -38 -28 -38 -53 -21 -86 61
-253 51 -290 -17 -11 -20 -18 -22 -45 -17 -41 7 -120 -28 -129 -57 -4 -11 -10
-17 -13 -15 -19 11 -74 -26 -87 -58 -23 -55 -24 -126 -1 -148 12 -12 12 -23 1
-64 -17 -67 -8 -164 15 -164 5 0 7 -21 3 -48 -4 -34 0 -59 12 -87 10 -22 19
-65 21 -96 3 -64 35 -141 67 -162 12 -8 37 -18 55 -21 31 -7 32 -9 32 -59 0
-29 -4 -68 -10 -87 -5 -19 -13 -62 -16 -95 -5 -42 -12 -64 -25 -73 -27 -19
-25 -76 3 -96 12 -9 30 -16 40 -16 23 0 23 6 -12 -138 -16 -68 -30 -134 -30
-148 0 -18 -5 -24 -23 -24 -78 0 -124 -138 -72 -216 67 -103 631 -193 953
-154 132 17 148 19 272 47 283 62 392 136 392 265 0 56 -29 98 -67 98 -19 0
-25 11 -45 76 -12 42 -23 90 -24 107 -1 28 2 31 49 43 28 8 61 15 75 18 135
22 243 72 328 151 111 102 148 187 159 361 16 274 -92 497 -262 539 -41 9
-152 7 -192 -4 -32 -9 -33 -9 -33 22 0 44 -38 117 -66 127 -13 5 -39 7 -56 3
-18 -3 -30 -2 -26 2 10 10 -21 85 -46 114 -12 13 -34 30 -51 37 -16 8 -43 24
-58 37 -23 18 -41 22 -96 22 -39 0 -74 -5 -83 -12 -12 -10 -18 -7 -37 17 -12
17 -45 42 -74 57 -42 22 -68 28 -137 30 -47 2 -105 5 -130 7 -25 2 -56 0 -70
-4z"/>
</g>
</svg>
